<?xml version="1.0" encoding="utf-8"?>
<!-- Generator: Adobe Illustrator 17.0.0, SVG Export Plug-In . SVG Version: 6.00 Build 0)  -->
<!DOCTYPE svg PUBLIC "-//W3C//DTD SVG 1.1//EN" "http://www.w3.org/Graphics/SVG/1.1/DTD/svg11.dtd">
<svg version="1.1" id="Layer_1" xmlns="http://www.w3.org/2000/svg" xmlns:xlink="http://www.w3.org/1999/xlink" x="0px" y="0px"
	 width="70px" height="50px" viewBox="0 0 70 50" enable-background="new 0 0 70 50" xml:space="preserve">
<g>
	<path fill="#F7F7F7" d="M65,20H5c-2.762,0-5,2.238-5,5c0,2.762,2.238,5,5,5h60c2.762,0,5-2.238,5-5C70,22.238,67.762,20,65,20z
		 M5,10h60c2.762,0,5-2.238,5-5c0-2.762-2.238-5-5-5H5C2.238,0,0,2.238,0,5C0,7.762,2.238,10,5,10z M65,40H5c-2.762,0-5,2.238-5,5
		c0,2.762,2.238,5,5,5h60c2.762,0,5-2.238,5-5C70,42.238,67.762,40,65,40z"/>
</g>
</svg>
